<?xml version="1.0" encoding="UTF-8" standalone="no"?>
<!-- Created with Inkscape (http://www.inkscape.org/) -->
<svg viewBox="0 0 291.04166 396.875" version="1.1" id="svg5" xml:space="preserve" xmlns="http://www.w3.org/2000/svg" xmlns:svg="http://www.w3.org/2000/svg"><defs id="defs2"/><g id="layer1"><path id="rect2262" style="fill: #e4e4e1; stroke: none; stroke-width: 41.3409px; stroke-linecap: square; stroke-dasharray: none; stroke-opacity: .991293; stop-color: #e4e4e1" d="m 52.916664,211.66666 v 52.91667 H 0 v 105.83333 c 0,14.61251 11.845846,26.45833 26.458333,26.45833 H 79.374994 V 370.41666 238.125 H 264.58333 v 119.0625 c 0,7.30622 -5.92294,13.22916 -13.22917,13.22916 H 238.12499 V 264.58333 h -52.91666 c 14.61253,0 26.45833,11.8458 26.45833,26.45833 v 105.83333 h 39.6875 c 21.91867,0 39.6875,-17.76883 39.6875,-39.68749 V 211.66666 Z m -26.458331,79.375 h 26.458331 v 79.375 H 26.458333 Z"/><path id="rect2264" style="fill: #e4e4e1; stroke: none; stroke-width: 41.3409px; stroke-linecap: square; stroke-dasharray: none; stroke-opacity: .991293; stop-color: #e4e4e1" d="m 52.916724,52.916682 h 26.45833 l -6e-5,132.291648 h -26.45827 z"/><path id="rect2266" style="fill: #e4e4e1; stroke: none; stroke-width: 41.3411px; stroke-linecap: square; stroke-dasharray: none; stroke-opacity: .991293; stop-color: #e4e4e1" d="m 105.83337,52.916684 -4e-5,132.291646 h 26.45833 l 4e-5,-105.833307 h 13.22917 c 7.30627,0 13.22916,5.92289 13.22916,13.22915 l -4e-5,92.604157 h 26.45834 l 4e-5,-92.604157 c 1e-5,-21.918795 -17.7687,-39.68749 -39.6875,-39.687489 z"/><path id="rect2370" style="fill: #e4e4e1; stroke: none; stroke-width: 31.3059px; stroke-linecap: square; stroke-dasharray: none; stroke-opacity: .991293; stop-color: #e4e4e1" d="M 39.687499,0 C 17.768831,0 0,17.768831 0,39.687499 V 238.125 H 26.458333 V 39.687499 c 0,-7.306222 5.922934,-13.229166 13.229166,-13.229166 H 251.35416 c 7.30623,0 13.22917,5.922944 13.22917,13.229166 V 145.52083 c 0,7.30622 -5.92294,13.22917 -13.22917,13.22917 H 238.12499 V 52.916666 h -52.91666 c 14.61253,10e-7 26.45833,11.8458 26.45833,26.458333 V 185.20833 h 39.6875 c 21.91867,0 39.6875,-17.76883 39.6875,-39.6875 V 39.687499 C 291.04166,17.768831 273.27283,0 251.35416,0 Z"/><path id="path2489" style="fill: #e4e4e1; stroke: none; stroke-width: 26.4583px; stroke-linecap: square; stroke-dasharray: none; stroke-opacity: .991293; stop-color: #e4e4e1" d="m 132.29166,264.58333 c -14.61253,0 -26.45833,11.8458 -26.45833,26.45833 v 105.83333 h 79.375 v -26.45833 h -52.91667 v -26.45833 h 26.45833 c 14.61254,0 26.45834,-11.84579 26.45834,-26.45833 v -26.45834 c 0,-14.61254 -11.8458,-26.45833 -26.45834,-26.45833 z m 0,26.45833 h 26.45833 V 317.5 h -26.45833 z"/></g></svg>