<?xml version="1.0" encoding="UTF-8" standalone="no"?>
<!-- Created with Inkscape (http://www.inkscape.org/) -->

<svg
   viewBox="0 0 634.99995 846.66663"
   version="1.1"
   id="svg5"
   xml:space="preserve"
   sodipodi:docname="invdevbg.svg"
   width="634.99994"
   height="846.66663"
   inkscape:version="1.3.2 (091e20ef0f, 2023-11-25, custom)"
   xmlns:inkscape="http://www.inkscape.org/namespaces/inkscape"
   xmlns:sodipodi="http://sodipodi.sourceforge.net/DTD/sodipodi-0.dtd"
   xmlns="http://www.w3.org/2000/svg"
   xmlns:svg="http://www.w3.org/2000/svg"><sodipodi:namedview
     id="namedview1"
     pagecolor="#ffffff"
     bordercolor="#000000"
     borderopacity="0.25"
     inkscape:showpageshadow="2"
     inkscape:pageopacity="0.0"
     inkscape:pagecheckerboard="0"
     inkscape:deskcolor="#d1d1d1"
     inkscape:zoom="0.73361642"
     inkscape:cx="118.59058"
     inkscape:cy="311.47067"
     inkscape:window-width="1918"
     inkscape:window-height="1051"
     inkscape:window-x="0"
     inkscape:window-y="27"
     inkscape:window-maximized="1"
     inkscape:current-layer="svg5"><inkscape:page
       x="0"
       y="0"
       width="634.99994"
       height="846.66663"
       id="page16"
       margin="0"
       bleed="0" /></sodipodi:namedview><defs
     id="defs2" /><path
     id="rect1"
     style="fill:#ffffff;stroke-width:10;stroke-linecap:round;fill-opacity:1"
     d="M 0 0 L 0 436.5625 L 105.83398 436.5625 C 127.75261 436.5625 145.52148 454.33137 145.52148 476.25 L 145.52148 582.08398 C 145.52148 604.00261 127.75261 621.77148 105.83398 621.77148 L 66.146484 621.77148 L 66.146484 515.9375 C 66.146484 501.32499 54.3 489.47852 39.6875 489.47852 L 92.603516 489.47852 L 92.603516 595.3125 L 105.83398 595.3125 C 113.14021 595.3125 119.0625 589.3902 119.0625 582.08398 L 119.0625 476.25 C 119.0625 468.9438 113.14021 463.02148 105.83398 463.02148 L 0 463.02148 L 0 489.47852 C 21.918756 489.47852 39.68751 507.24726 39.6875 529.16602 L 39.6875 621.77148 L 13.228516 621.77148 L 13.228516 529.16602 C 13.228516 521.85976 7.3062554 515.9375 0 515.9375 L 0 648.22852 L 145.52148 648.22852 L 145.52148 793.75 C 145.52148 815.66862 127.75261 833.4375 105.83398 833.4375 L 66.146484 833.4375 L 66.146484 727.60352 C 66.146484 712.99101 54.3 701.14648 39.6875 701.14648 L 92.603516 701.14648 L 92.603516 806.97852 L 105.83398 806.97852 C 113.14021 806.97852 119.0625 801.0562 119.0625 793.75 L 119.0625 674.6875 L 0 674.6875 L 0 701.14648 L 13.228516 701.14648 C 27.841026 701.14648 39.6875 712.991 39.6875 727.60352 L 39.6875 754.0625 C 39.6875 768.67502 27.841026 780.52148 13.228516 780.52148 L 0 780.52148 L 0 806.97852 L 39.6875 806.97852 L 39.6875 833.4375 L 0 833.4375 L 0 846.66602 L 635 846.66602 L 635 833.4375 L 595.3125 833.4375 L 595.3125 727.60352 C 595.3125 712.99101 607.15899 701.14648 621.77148 701.14648 L 635 701.14648 L 635 674.6875 L 568.85352 674.6875 L 568.85352 806.97852 L 568.85352 833.4375 L 515.9375 833.4375 C 501.32504 833.4375 489.47852 821.59099 489.47852 806.97852 L 489.47852 701.14648 L 542.39648 701.14648 L 542.39648 648.22852 L 635 648.22852 L 635 515.9375 L 621.77148 515.9375 L 621.77148 621.77148 L 595.3125 621.77148 L 595.3125 489.47852 L 635 489.47852 L 635 463.02148 L 529.16602 463.02148 C 521.85979 463.02148 515.9375 468.9438 515.9375 476.25 L 515.9375 674.6875 L 489.47852 674.6875 L 489.47852 476.25 C 489.47852 454.33137 507.24739 436.5625 529.16602 436.5625 L 635 436.5625 L 635 0 L 0 0 z M 52.916016 13.228516 L 264.58398 13.228516 C 286.50262 13.228516 304.27148 30.997392 304.27148 52.916016 L 304.27148 158.75 C 304.27148 180.66863 286.50262 198.4375 264.58398 198.4375 L 224.89648 198.4375 L 224.89648 92.603516 C 224.89648 77.991011 213.05001 66.146485 198.4375 66.146484 L 251.35352 66.146484 L 251.35352 171.97852 L 264.58398 171.97852 C 271.89022 171.97852 277.8125 166.0562 277.8125 158.75 L 277.8125 52.916016 C 277.8125 45.609808 271.89022 39.6875 264.58398 39.6875 L 52.916016 39.6875 C 45.609798 39.6875 39.6875 45.609808 39.6875 52.916016 L 39.6875 251.35352 L 13.228516 251.35352 L 13.228516 52.916016 C 13.228516 30.997392 30.997392 13.228516 52.916016 13.228516 z M 370.41602 13.228516 L 582.08398 13.228516 C 604.00261 13.228516 621.77148 30.997392 621.77148 52.916016 L 621.77148 158.75 C 621.77148 180.66863 604.00261 198.4375 582.08398 198.4375 L 542.39648 198.4375 L 542.39648 92.603516 C 542.39648 77.991011 530.55001 66.146485 515.9375 66.146484 L 568.85352 66.146484 L 568.85352 171.97852 L 582.08398 171.97852 C 589.3902 171.97852 595.3125 166.0562 595.3125 158.75 L 595.3125 52.916016 C 595.3125 45.609808 589.39021 39.6875 582.08398 39.6875 L 370.41602 39.6875 C 363.10979 39.6875 357.1875 45.609808 357.1875 52.916016 L 357.1875 251.35352 L 330.72852 251.35352 L 330.72852 52.916016 C 330.72852 30.997392 348.49739 13.228516 370.41602 13.228516 z M 66.146484 66.146484 L 92.603516 66.146484 L 92.603516 198.4375 L 66.146484 198.4375 L 66.146484 66.146484 z M 119.0625 66.146484 L 158.75 66.146484 C 180.66876 66.146483 198.43751 83.915235 198.4375 105.83398 L 198.4375 198.4375 L 171.97852 198.4375 L 171.97852 105.83398 C 171.97852 98.527742 166.05625 92.603516 158.75 92.603516 L 145.52148 92.603516 L 145.52148 198.4375 L 119.0625 198.4375 L 119.0625 66.146484 z M 383.64648 66.146484 L 410.10352 66.146484 L 410.10352 198.4375 L 383.64648 198.4375 L 383.64648 66.146484 z M 436.5625 66.146484 L 476.25 66.146484 C 498.16876 66.146483 515.93751 83.915235 515.9375 105.83398 L 515.9375 198.4375 L 489.47852 198.4375 L 489.47852 105.83398 C 489.47852 98.527742 483.55625 92.603516 476.25 92.603516 L 463.02148 92.603516 L 463.02148 198.4375 L 436.5625 198.4375 L 436.5625 66.146484 z M 66.146484 224.89648 L 304.27148 224.89648 L 304.27148 370.41602 C 304.27148 392.33461 286.50262 410.10352 264.58398 410.10352 L 224.89648 410.10352 L 224.89648 304.27148 C 224.89648 289.65899 213.05001 277.8125 198.4375 277.8125 L 251.35352 277.8125 L 251.35352 383.64648 L 264.58398 383.64648 C 271.89022 383.64648 277.8125 377.72222 277.8125 370.41602 L 277.8125 251.35352 L 92.603516 251.35352 L 92.603516 383.64648 L 92.603516 410.10352 L 39.6875 410.10352 C 25.075043 410.10352 13.228516 398.25897 13.228516 383.64648 L 13.228516 277.8125 L 66.146484 277.8125 L 66.146484 224.89648 z M 383.64648 224.89648 L 621.77148 224.89648 L 621.77148 370.41602 C 621.77148 392.33462 604.00261 410.10352 582.08398 410.10352 L 542.39648 410.10352 L 542.39648 304.27148 C 542.39648 289.65899 530.55001 277.8125 515.9375 277.8125 L 568.85352 277.8125 L 568.85352 383.64648 L 582.08398 383.64648 C 589.3902 383.64648 595.3125 377.72222 595.3125 370.41602 L 595.3125 251.35352 L 410.10352 251.35352 L 410.10352 383.64648 L 410.10352 410.10352 L 357.1875 410.10352 C 342.57504 410.10352 330.72852 398.25897 330.72852 383.64648 L 330.72852 277.8125 L 383.64648 277.8125 L 383.64648 224.89648 z M 145.52148 277.8125 L 171.97852 277.8125 C 186.59102 277.8125 198.4375 289.65898 198.4375 304.27148 L 198.4375 330.72852 C 198.4375 345.34101 186.59102 357.1875 171.97852 357.1875 L 145.52148 357.1875 L 145.52148 383.64648 L 198.4375 383.64648 L 198.4375 410.10352 L 119.0625 410.10352 L 119.0625 304.27148 C 119.0625 289.65899 130.90899 277.8125 145.52148 277.8125 z M 463.02148 277.8125 L 489.47852 277.8125 C 504.09101 277.8125 515.9375 289.65898 515.9375 304.27148 L 515.9375 330.72852 C 515.9375 345.34102 504.09101 357.1875 489.47852 357.1875 L 463.02148 357.1875 L 463.02148 383.64648 L 515.9375 383.64648 L 515.9375 410.10352 L 436.5625 410.10352 L 436.5625 304.27148 C 436.5625 289.65899 448.40899 277.8125 463.02148 277.8125 z M 39.6875 304.27148 L 39.6875 383.64648 L 66.146484 383.64648 L 66.146484 304.27148 L 39.6875 304.27148 z M 145.52148 304.27148 L 145.52148 330.72852 L 171.97852 330.72852 L 171.97852 304.27148 L 145.52148 304.27148 z M 357.1875 304.27148 L 357.1875 383.64648 L 383.64648 383.64648 L 383.64648 304.27148 L 357.1875 304.27148 z M 463.02148 304.27148 L 463.02148 330.72852 L 489.47852 330.72852 L 489.47852 304.27148 L 463.02148 304.27148 z M 211.66602 436.5625 L 423.33398 436.5625 C 445.25261 436.5625 463.02148 454.33137 463.02148 476.25 L 463.02148 582.08398 C 463.02148 604.00261 445.25261 621.77148 423.33398 621.77148 L 383.64648 621.77148 L 383.64648 515.9375 C 383.64648 501.32499 371.80001 489.47852 357.1875 489.47852 L 410.10352 489.47852 L 410.10352 595.3125 L 423.33398 595.3125 C 430.64021 595.3125 436.5625 589.3902 436.5625 582.08398 L 436.5625 476.25 C 436.5625 468.9438 430.64021 463.02148 423.33398 463.02148 L 211.66602 463.02148 C 204.35979 463.02148 198.4375 468.9438 198.4375 476.25 L 198.4375 674.6875 L 171.97852 674.6875 L 171.97852 476.25 C 171.97852 454.33137 189.74739 436.5625 211.66602 436.5625 z M 224.89648 489.47852 L 251.35352 489.47852 L 251.35352 621.77148 L 224.89648 621.77148 L 224.89648 489.47852 z M 277.8125 489.47852 L 317.5 489.47852 C 339.41876 489.47852 357.18751 507.24726 357.1875 529.16602 L 357.1875 621.77148 L 330.72852 621.77148 L 330.72852 529.16602 C 330.72852 521.85976 324.80625 515.9375 317.5 515.9375 L 304.27148 515.9375 L 304.27148 621.77148 L 277.8125 621.77148 L 277.8125 489.47852 z M 542.39648 489.47852 L 568.85352 489.47852 L 568.85352 621.77148 L 542.39648 621.77148 L 542.39648 489.47852 z M 224.89648 648.22852 L 463.02148 648.22852 L 463.02148 793.75 C 463.02148 815.66862 445.25261 833.4375 423.33398 833.4375 L 383.64648 833.4375 L 383.64648 727.60352 C 383.64648 712.99101 371.80001 701.14648 357.1875 701.14648 L 410.10352 701.14648 L 410.10352 806.97852 L 423.33398 806.97852 C 430.64021 806.97852 436.5625 801.0562 436.5625 793.75 L 436.5625 674.6875 L 251.35352 674.6875 L 251.35352 806.97852 L 251.35352 833.4375 L 198.4375 833.4375 C 183.82504 833.4375 171.97852 821.59099 171.97852 806.97852 L 171.97852 701.14648 L 224.89648 701.14648 L 224.89648 648.22852 z M 304.27148 701.14648 L 330.72852 701.14648 C 345.34102 701.14648 357.1875 712.991 357.1875 727.60352 L 357.1875 754.0625 C 357.1875 768.67502 345.34102 780.52148 330.72852 780.52148 L 304.27148 780.52148 L 304.27148 806.97852 L 357.1875 806.97852 L 357.1875 833.4375 L 277.8125 833.4375 L 277.8125 727.60352 C 277.8125 712.99101 289.65899 701.14648 304.27148 701.14648 z M 0 727.60352 L 0 754.0625 L 13.228516 754.0625 L 13.228516 727.60352 L 0 727.60352 z M 198.4375 727.60352 L 198.4375 806.97852 L 224.89648 806.97852 L 224.89648 727.60352 L 198.4375 727.60352 z M 304.27148 727.60352 L 304.27148 754.0625 L 330.72852 754.0625 L 330.72852 727.60352 L 304.27148 727.60352 z M 515.9375 727.60352 L 515.9375 806.97852 L 542.39648 806.97852 L 542.39648 727.60352 L 515.9375 727.60352 z M 621.77148 727.60352 L 621.77148 754.0625 L 635 754.0625 L 635 727.60352 L 621.77148 727.60352 z M 621.77148 780.52148 L 621.77148 806.97852 L 635 806.97852 L 635 780.52148 L 621.77148 780.52148 z " /></svg>
